REM DIRINDEX 1\2,1\3,1\4,1\6,1\5\7,1\5\8
REM DIRNAME cjc114,folder01,folder02,folder03,folder04,folder05,folder06,folder07
TITLE ""
FILE "DB4500_5th_5C_03.mp3" MP3
  TRACK 01 AUDIO
    TITLE "0:"
    INDEX 01 00:00:00
  TRACK 02 AUDIO
    TITLE "2:cjc114_3288"
    INDEX 01 00:00:03
  TRACK 03 AUDIO
    TITLE "0:"
    INDEX 01 00:01:11
  TRACK 04 AUDIO
    TITLE "3:cjc114_3289"
    INDEX 01 00:01:34
  TRACK 05 AUDIO
    TITLE "0:"
    INDEX 01 00:02:51
  TRACK 06 AUDIO
    TITLE "4:cjc114_3290"
    INDEX 01 00:02:69
  TRACK 07 AUDIO
    TITLE "0:"
    INDEX 01 00:05:44
  TRACK 08 AUDIO
    TITLE "2:cjc114_3291"
    INDEX 01 00:06:16
  TRACK 09 AUDIO
    TITLE "0:"
    INDEX 01 00:07:25
  TRACK 10 AUDIO
    TITLE "3:cjc114_3292"
    INDEX 01 00:07:49
  TRACK 11 AUDIO
    TITLE "0:"
    INDEX 01 00:09:49
  TRACK 12 AUDIO
    TITLE "4:cjc114_3293"
    INDEX 01 00:09:73
  TRACK 13 AUDIO
    TITLE "0:"
    INDEX 01 00:13:14
  TRACK 14 AUDIO
    TITLE "2:cjc114_3294"
    INDEX 01 00:13:63
  TRACK 15 AUDIO
    TITLE "0:"
    INDEX 01 00:15:07
  TRACK 16 AUDIO
    TITLE "3:cjc114_3295"
    INDEX 01 00:15:30
  TRACK 17 AUDIO
    TITLE "0:"
    INDEX 01 00:16:49
  TRACK 18 AUDIO
    TITLE "4:cjc114_3296"
    INDEX 01 00:16:65
  TRACK 19 AUDIO
    TITLE "0:"
    INDEX 01 00:19:24
  TRACK 20 AUDIO
    TITLE "2:cjc114_3297"
    INDEX 01 00:19:69
  TRACK 21 AUDIO
    TITLE "0:"
    INDEX 01 00:21:15
  TRACK 22 AUDIO
    TITLE "3:cjc114_3298"
    INDEX 01 00:21:37
  TRACK 23 AUDIO
    TITLE "0:"
    INDEX 01 00:22:62
  TRACK 24 AUDIO
    TITLE "4:cjc114_3299"
    INDEX 01 00:23:06
  TRACK 25 AUDIO
    TITLE "0:"
    INDEX 01 00:26:69
  TRACK 26 AUDIO
    TITLE "2:cjc114_3300"
    INDEX 01 00:27:41
  TRACK 27 AUDIO
    TITLE "0:"
    INDEX 01 00:28:55
  TRACK 28 AUDIO
    TITLE "3:cjc114_3301"
    INDEX 01 00:28:74
  TRACK 29 AUDIO
    TITLE "0:"
    INDEX 01 00:29:64
  TRACK 30 AUDIO
    TITLE "4:cjc114_3302"
    INDEX 01 00:30:10
  TRACK 31 AUDIO
    TITLE "0:"
    INDEX 01 00:32:70
  TRACK 32 AUDIO
    TITLE "2:cjc114_3303"
    INDEX 01 00:33:42
  TRACK 33 AUDIO
    TITLE "0:"
    INDEX 01 00:34:55
  TRACK 34 AUDIO
    TITLE "3:cjc114_3304"
    INDEX 01 00:35:02
  TRACK 35 AUDIO
    TITLE "0:"
    INDEX 01 00:36:27
  TRACK 36 AUDIO
    TITLE "4:cjc114_3305"
    INDEX 01 00:36:48
  TRACK 37 AUDIO
    TITLE "0:"
    INDEX 01 00:39:58
  TRACK 38 AUDIO
    TITLE "2:cjc114_3306"
    INDEX 01 00:40:26
  TRACK 39 AUDIO
    TITLE "0:"
    INDEX 01 00:41:32
  TRACK 40 AUDIO
    TITLE "3:cjc114_3307"
    INDEX 01 00:41:55
  TRACK 41 AUDIO
    TITLE "0:"
    INDEX 01 00:43:15
  TRACK 42 AUDIO
    TITLE "4:cjc114_3308"
    INDEX 01 00:43:39
  TRACK 43 AUDIO
    TITLE "0:"
    INDEX 01 00:47:03
  TRACK 44 AUDIO
    TITLE "2:cjc114_3309"
    INDEX 01 00:47:54
  TRACK 45 AUDIO
    TITLE "0:"
    INDEX 01 00:48:73
  TRACK 46 AUDIO
    TITLE "3:cjc114_3310"
    INDEX 01 00:49:20
  TRACK 47 AUDIO
    TITLE "0:"
    INDEX 01 00:50:56
  TRACK 48 AUDIO
    TITLE "4:cjc114_3311"
    INDEX 01 00:51:01
  TRACK 49 AUDIO
    TITLE "0:"
    INDEX 01 00:55:24
  TRACK 50 AUDIO
    TITLE "2:cjc114_3312"
    INDEX 01 00:55:73
  TRACK 51 AUDIO
    TITLE "0:"
    INDEX 01 00:57:31
  TRACK 52 AUDIO
    TITLE "3:cjc114_3313"
    INDEX 01 00:57:46
  TRACK 53 AUDIO
    TITLE "0:"
    INDEX 01 00:58:62
  TRACK 54 AUDIO
    TITLE "4:cjc114_3314"
    INDEX 01 00:59:16
  TRACK 55 AUDIO
    TITLE "0:"
    INDEX 01 01:02:42
  TRACK 56 AUDIO
    TITLE "2:cjc114_3315"
    INDEX 01 01:03:04
  TRACK 57 AUDIO
    TITLE "0:"
    INDEX 01 01:04:17
  TRACK 58 AUDIO
    TITLE "3:cjc114_3316"
    INDEX 01 01:04:31
  TRACK 59 AUDIO
    TITLE "0:"
    INDEX 01 01:05:40
  TRACK 60 AUDIO
    TITLE "4:cjc114_3317"
    INDEX 01 01:05:54
  TRACK 61 AUDIO
    TITLE "0:"
    INDEX 01 01:08:40
  TRACK 62 AUDIO
    TITLE "2:cjc114_3318"
    INDEX 01 01:09:01
  TRACK 63 AUDIO
    TITLE "0:"
    INDEX 01 01:11:58
  TRACK 64 AUDIO
    TITLE "3:cjc114_3319"
    INDEX 01 01:11:72
  TRACK 65 AUDIO
    TITLE "0:"
    INDEX 01 01:13:26
  TRACK 66 AUDIO
    TITLE "4:cjc114_3320"
    INDEX 01 01:13:42
  TRACK 67 AUDIO
    TITLE "0:"
    INDEX 01 01:17:22
  TRACK 68 AUDIO
    TITLE "2:cjc114_3321"
    INDEX 01 01:17:59
  TRACK 69 AUDIO
    TITLE "0:"
    INDEX 01 01:18:54
  TRACK 70 AUDIO
    TITLE "3:cjc114_3322"
    INDEX 01 01:18:70
  TRACK 71 AUDIO
    TITLE "0:"
    INDEX 01 01:19:58
  TRACK 72 AUDIO
    TITLE "4:cjc114_3323"
    INDEX 01 01:19:72
  TRACK 73 AUDIO
    TITLE "0:"
    INDEX 01 01:24:00
  TRACK 74 AUDIO
    TITLE "2:cjc114_3324"
    INDEX 01 01:24:36
  TRACK 75 AUDIO
    TITLE "0:"
    INDEX 01 01:25:57
  TRACK 76 AUDIO
    TITLE "3:cjc114_3325"
    INDEX 01 01:25:70
  TRACK 77 AUDIO
    TITLE "0:"
    INDEX 01 01:27:22
  TRACK 78 AUDIO
    TITLE "4:cjc114_3326"
    INDEX 01 01:27:36
  TRACK 79 AUDIO
    TITLE "0:"
    INDEX 01 01:30:58
